<svg xmlns="http://www.w3.org/2000/svg" viewBox="0 0 1269.7 500"><defs><style>.\36 e57840e-c2c1-4a3d-a04e-4f3b1c1b96da{fill:#86af49;}.\37 5592278-3690-494e-9745-27a5dd506339{fill:#555;}</style></defs><title>IPBC-Logo-light_back copia 2</title><g id="8a543b95-ef6b-4910-99a1-5a305e1e4cf3" data-name="color"><path class="6e57840e-c2c1-4a3d-a04e-4f3b1c1b96da" d="M345.7,49.2H206.6v405H307.9V327.9h37.8a139.4,139.4,0,0,0,0-278.7Zm51.6,142.9-84,51a3.8,3.8,0,0,1-5.7-3.3V137.4a3.9,3.9,0,0,1,5.7-3.4l84,51.4A3.8,3.8,0,0,1,397.3,192.1ZM24,454.1H125.2V49.3H24Z"/><path class="75592278-3690-494e-9745-27a5dd506339" d="M1169.1,304.7c-16.1,39.5-50.9,64.7-95.1,64.7-61.6,0-104.9-48.8-104.9-117.2s43.3-118.6,104.9-118.6c44.1,0,78.9,25.4,95,65.3l85.2-52c-34.7-63.1-100.7-103-180.2-103-118.5,0-205.8,87.8-205.8,208.4S955.5,459.1,1074,459.1c79.6,0,145.8-39.9,180.4-102.6ZM765.8,242.5A110.2,110.2,0,0,0,695,48.9H533.1V454.1l194.6-.2a109.1,109.1,0,0,0,38.1-211.4ZM633,211V129.1a3,3,0,0,1,4.5-2.7l67.2,41.1a3,3,0,0,1,0,5.3l-67.2,40.8A3,3,0,0,1,633,211Zm87.5,123.3-79.9,48.5a3.6,3.6,0,0,1-5.3-3.2V282.4a3.6,3.6,0,0,1,5.3-3.2L720.5,328A3.6,3.6,0,0,1,720.5,334.3Z"/></g></svg>